<?xml version="1.0" standalone="no"?>
<!DOCTYPE svg PUBLIC "-//W3C//DTD SVG 20010904//EN"
 "http://www.w3.org/TR/2001/REC-SVG-20010904/DTD/svg10.dtd">
<svg version="1.0" xmlns="http://www.w3.org/2000/svg"
 width="512.000000pt" height="512.000000pt" viewBox="0 0 512.000000 512.000000"
 preserveAspectRatio="xMidYMid meet">

<g transform="translate(0.000000,512.000000) scale(0.100000,-0.100000)"
fill="#000000" stroke="none">
<path d="M1706 4937 c-21 -21 -23 -34 -30 -188 -8 -203 2 -287 54 -439 122
-358 129 -511 32 -703 -35 -72 -62 -108 -126 -173 -94 -94 -192 -154 -252
-154 -69 0 -177 -29 -254 -66 -105 -52 -213 -160 -265 -268 -22 -43 -44 -80
-50 -81 -94 -26 -166 -54 -216 -84 -130 -76 -244 -206 -301 -342 -55 -132 -58
-169 -58 -764 0 -440 -3 -549 -14 -576 -37 -90 -25 -213 27 -296 33 -52 100
-111 156 -136 71 -32 198 -31 271 4 30 14 73 44 94 67 l40 41 39 -36 c22 -19
69 -49 106 -67 l66 -31 267 -3 266 -3 12 -30 c7 -16 37 -57 68 -91 68 -77 110
-163 119 -248 9 -94 54 -131 116 -98 41 22 48 39 43 109 -10 121 -53 218 -149
333 -41 49 -69 94 -77 122 -15 52 -8 129 14 173 39 75 132 131 217 131 20 0
79 -17 130 -38 l94 -37 330 0 330 0 63 34 c71 38 101 70 139 145 22 42 27 69
31 154 3 56 6 102 7 102 1 0 30 -12 66 -26 35 -15 105 -37 154 -49 l90 -23 -1
-104 c0 -71 -6 -120 -18 -158 -58 -177 -184 -306 -363 -372 -53 -19 -85 -22
-363 -27 -297 -6 -306 -7 -354 -30 -63 -31 -116 -84 -147 -147 -19 -39 -24
-69 -27 -151 -4 -98 -3 -103 21 -127 34 -34 80 -34 112 -1 22 21 25 33 25 102
0 88 17 134 63 167 27 20 46 21 330 27 292 5 305 6 382 32 115 38 199 91 290
182 138 138 202 281 212 476 l6 106 126 6 c69 3 163 13 208 22 543 105 970
534 1080 1083 24 120 24 384 0 504 -98 490 -450 889 -920 1042 -251 82 -542
86 -799 10 -16 -5 -18 4 -18 88 0 118 -20 212 -65 306 -64 136 -169 244 -301
310 -99 51 -168 66 -284 67 -122 0 -209 -24 -314 -85 l-63 -37 -7 66 c-3 36
-6 108 -6 159 0 85 -2 95 -25 117 -15 16 -36 25 -55 25 -19 0 -40 -9 -55 -25
-24 -23 -25 -30 -24 -132 2 -262 15 -314 87 -356 54 -32 113 -25 192 23 37 23
92 50 120 61 165 62 355 16 491 -120 123 -123 168 -277 143 -486 l-6 -50 -80
-43 c-44 -24 -117 -72 -163 -106 l-83 -63 -194 8 c-299 13 -295 13 -323 -16
-14 -13 -25 -34 -25 -47 0 -13 39 -123 87 -246 l86 -223 -27 -87 c-15 -48 -32
-117 -38 -154 l-12 -68 -87 0 c-121 0 -232 22 -389 76 -128 45 -141 47 -246
48 -108 1 -112 0 -186 -36 l-76 -38 -131 0 -132 0 18 32 c67 117 230 207 376
208 54 1 135 34 217 90 217 147 351 372 367 616 8 124 -16 259 -82 464 -69
212 -76 258 -68 456 l6 162 -26 26 c-33 33 -79 35 -111 3z m2129 -1122 c238
-49 438 -157 611 -329 373 -373 459 -930 217 -1399 -267 -517 -879 -768 -1432
-587 -305 99 -560 319 -705 608 -85 170 -121 329 -121 537 1 166 17 264 66
399 16 44 29 86 29 93 0 8 -31 95 -70 194 -38 100 -70 182 -70 184 0 2 8 2 18
0 9 -2 98 -6 198 -9 l181 -6 83 65 c182 144 361 224 585 261 100 17 301 11
410 -11z m-2101 -1064 c173 -56 304 -81 421 -81 l82 0 6 -97 c4 -54 10 -115
13 -135 l7 -37 -654 -3 -654 -3 -50 -25 c-64 -31 -124 -91 -155 -155 l-25 -50
-5 -620 c-4 -551 -7 -623 -21 -650 -22 -39 -47 -61 -92 -80 -50 -21 -93 -19
-144 6 -49 24 -75 56 -93 116 -12 38 -11 50 9 108 20 64 21 80 21 613 0 346 4
570 11 608 33 187 181 355 375 426 53 20 82 22 304 26 l244 4 41 27 c97 67
158 67 359 2z m600 -602 c41 -108 103 -219 184 -327 34 -47 55 -80 45 -76 -10
5 -276 11 -591 14 l-574 5 -19 24 c-26 32 -24 77 6 106 l24 25 431 0 431 0 24
25 c16 15 25 36 25 55 0 19 -9 40 -25 55 l-24 25 -432 0 c-310 0 -443 -3 -473
-12 -86 -26 -166 -136 -166 -228 0 -92 80 -202 166 -228 30 -9 189 -12 593
-12 l552 0 24 -25 c33 -32 33 -78 0 -110 l-24 -25 -632 0 c-467 0 -642 -3
-673 -12 -55 -16 -138 -99 -154 -154 -28 -94 -8 -169 63 -239 66 -67 98 -75
285 -75 141 0 152 -1 145 -18 -4 -9 -12 -45 -18 -79 l-11 -63 -216 0 c-249 0
-285 7 -349 71 -72 72 -71 65 -71 685 0 367 4 562 11 581 14 37 47 73 84 89
24 11 155 13 678 11 l648 -2 33 -86z m544 -796 c-3 -143 -9 -161 -72 -207 -26
-20 -40 -21 -334 -21 l-307 0 -75 35 c-69 31 -83 34 -171 35 -90 0 -99 -2
-171 -37 l-76 -38 -211 0 c-212 0 -212 0 -236 25 -33 32 -33 78 0 110 l24 25
632 0 c467 0 642 3 673 12 59 18 138 99 155 161 13 45 11 110 -5 151 -4 10 33
-12 85 -51 l92 -68 -3 -132z"/>
<path d="M2940 3424 c-143 -52 -230 -184 -217 -329 11 -116 67 -201 169 -256
57 -31 70 -34 148 -34 79 0 90 3 150 36 231 127 222 456 -15 568 -65 31 -172
38 -235 15z m163 -158 c104 -43 128 -175 47 -256 -66 -66 -156 -67 -221 -1
-124 123 13 325 174 257z"/>
<path d="M3885 3349 c-90 -18 -208 -83 -277 -152 -112 -112 -163 -235 -163
-397 0 -160 51 -285 161 -394 109 -110 234 -161 394 -161 160 0 285 51 394
161 110 109 161 234 161 394 0 115 -14 170 -68 272 -35 67 -130 167 -194 205
-117 68 -282 97 -408 72z m279 -187 c91 -42 149 -100 194 -190 35 -72 37 -81
37 -172 0 -91 -2 -100 -37 -172 -45 -91 -103 -147 -196 -191 -61 -29 -76 -32
-162 -32 -86 0 -101 3 -162 32 -93 44 -151 100 -196 191 -35 72 -37 81 -37
171 0 87 3 102 32 163 40 85 97 147 172 186 78 42 122 52 213 48 61 -3 92 -11
142 -34z"/>
<path d="M4190 2862 c-15 -12 -25 -35 -31 -72 -14 -89 -60 -135 -149 -149 -88
-14 -120 -82 -64 -138 24 -24 30 -25 86 -19 70 7 166 54 204 99 42 50 74 124
80 186 6 55 5 61 -19 85 -31 31 -75 34 -107 8z"/>
<path d="M3106 2470 c-63 -16 -153 -70 -197 -117 -22 -24 -55 -74 -72 -111
-29 -61 -32 -76 -32 -163 0 -90 2 -99 37 -171 45 -91 103 -147 196 -191 61
-29 76 -32 162 -32 86 0 101 3 162 32 93 44 151 100 196 191 35 72 37 81 37
172 0 91 -2 100 -37 172 -68 136 -188 217 -336 224 -42 2 -94 -1 -116 -6z
m168 -162 c86 -26 166 -136 166 -228 0 -124 -116 -240 -240 -240 -124 0 -240
116 -240 240 0 63 23 114 75 165 70 71 145 90 239 63z"/>
<path d="M2425 4295 c-16 -15 -25 -36 -25 -55 0 -19 9 -40 25 -55 21 -22 33
-25 95 -25 62 0 74 3 95 25 16 15 25 36 25 55 0 19 -9 40 -25 55 -21 22 -33
25 -95 25 -62 0 -74 -3 -95 -25z"/>
<path d="M2105 3975 c-16 -15 -25 -36 -25 -55 0 -19 9 -40 25 -55 21 -22 33
-25 95 -25 62 0 74 3 95 25 16 15 25 36 25 55 0 19 -9 40 -25 55 -21 22 -33
25 -95 25 -62 0 -74 -3 -95 -25z"/>
<path d="M2585 3975 c-16 -15 -25 -36 -25 -55 0 -19 9 -40 25 -55 21 -22 33
-25 95 -25 62 0 74 3 95 25 16 15 25 36 25 55 0 19 -9 40 -25 55 -21 22 -33
25 -95 25 -62 0 -74 -3 -95 -25z"/>
</g>
</svg>
