<?xml version="1.0" standalone="no"?>
<!DOCTYPE svg PUBLIC "-//W3C//DTD SVG 20010904//EN"
 "http://www.w3.org/TR/2001/REC-SVG-20010904/DTD/svg10.dtd">
<svg version="1.0" xmlns="http://www.w3.org/2000/svg"
 width="512.000000pt" height="512.000000pt" viewBox="0 0 512.000000 512.000000"
 preserveAspectRatio="xMidYMid meet">

<g transform="translate(0.000000,512.000000) scale(0.100000,-0.100000)"
fill="#000000" stroke="none">
<path d="M1215 5109 c-610 -83 -1070 -552 -1192 -1214 -23 -122 -23 -421 0
-564 80 -498 321 -978 746 -1486 41 -49 168 -183 282 -298 l206 -208 7 -72
c33 -334 187 -668 416 -898 183 -184 379 -293 620 -345 128 -28 398 -25 540 5
355 75 583 212 770 462 152 203 250 495 250 743 l0 90 193 195 c253 256 387
418 545 653 247 370 416 765 481 1127 105 582 -7 1027 -349 1384 -206 216
-434 343 -731 408 -148 33 -407 33 -559 0 -328 -71 -628 -258 -826 -517 l-56
-73 -68 88 c-195 251 -510 443 -833 506 -99 20 -345 28 -442 14z m448 -323
c197 -51 377 -156 521 -306 98 -102 144 -168 215 -313 56 -115 83 -139 156
-139 83 0 111 26 175 160 62 129 122 215 220 312 137 138 307 234 509 287 82
22 119 26 251 27 93 0 179 -4 215 -12 307 -67 549 -230 715 -483 143 -217 199
-469 171 -764 -57 -603 -363 -1195 -915 -1773 -63 -65 -92 -89 -97 -80 -18 33
-90 256 -122 383 -77 298 -102 561 -64 665 9 25 17 63 17 86 0 76 -70 144
-149 144 -78 0 -235 -57 -325 -119 -24 -17 -49 -31 -53 -31 -13 0 -80 186
-113 314 -25 100 -48 226 -65 358 -8 59 -40 100 -97 123 -59 23 -92 14 -195
-54 -565 -371 -837 -874 -806 -1491 l6 -119 -158 64 c-173 72 -216 78 -272 44
-44 -27 -65 -72 -93 -194 -12 -55 -25 -108 -29 -119 -6 -16 -26 1 -118 100
-582 621 -888 1270 -860 1824 31 593 405 1046 933 1130 105 16 317 5 427 -24z
m1022 -1661 c45 -211 188 -561 264 -648 40 -45 90 -61 145 -46 29 8 63 33 116
85 42 41 79 74 83 74 4 0 7 -30 7 -68 0 -165 39 -357 141 -697 38 -126 80
-285 94 -351 61 -296 16 -538 -144 -776 -44 -65 -151 -183 -151 -166 0 4 7 37
16 75 24 101 14 342 -19 484 -34 143 -76 267 -141 409 -65 145 -196 366 -243
412 -31 30 -39 33 -96 33 -46 0 -69 -5 -89 -20 -49 -36 -57 -67 -62 -245 -8
-262 -48 -408 -136 -504 -89 -97 -212 -95 -369 6 -64 41 -144 23 -193 -43 -26
-35 -57 -253 -58 -398 0 -132 -1 -133 -80 -16 -86 128 -148 277 -185 445 -35
160 -28 560 10 560 7 0 100 -36 206 -80 107 -44 210 -83 229 -86 48 -7 118 30
142 76 23 42 20 91 -10 201 -114 418 11 901 317 1222 89 93 171 161 181 150 4
-4 15 -44 25 -88z m230 -1989 c55 -185 71 -387 39 -497 -36 -121 -127 -245
-214 -289 -50 -26 -152 -50 -211 -50 -215 -1 -379 192 -379 446 l0 81 53 -9
c83 -16 231 -4 309 25 160 58 253 172 342 422 7 18 9 16 22 -14 8 -19 25 -70
39 -115z"/>
</g>
</svg>
