<svg xmlns="http://www.w3.org/2000/svg" fill="none" viewBox="0 0 111 109" height="109" width="111">
<path fill="black" d="M82.5414 28.9961C81.1903 29.0298 79.7317 29.1733 78.3687 29.4385C76.4557 29.8098 74.734 30.4426 73.8373 31.1116C73.7536 31.378 73.7297 31.7433 73.7417 31.9904C73.7417 32.2436 73.7775 32.5184 73.8254 32.7956C75.4155 31.6011 77.3644 30.9164 79.3371 30.269C77.6274 31.4829 76.1568 32.7583 74.7699 34.065C75.7383 34.4953 76.8861 34.5013 77.6274 33.9722H77.6394C79.2415 32.8101 81.3816 30.8669 82.5414 28.9997V28.9961ZM46.9241 29.4288C46.6013 29.4288 46.2546 29.465 45.8959 29.5458C45.6568 30.7259 45.8002 31.8 46.2426 32.6546C45.1666 32.2279 43.8753 32.299 42.5601 33.4092C43.3612 36.1612 45.7763 37.3872 48.2632 36.1444C48.3349 37.2823 48.3708 38.4299 48.3708 39.5751C47.5937 38.7192 46.3144 37.9417 44.9872 37.9778C44.0547 38.014 43.0862 38.4419 42.2373 39.5268C43.5764 42.0583 46.1828 42.7574 48.3589 41.0457C48.3349 42.2873 48.2752 43.5289 48.1795 44.7826C47.4502 43.77 46.147 42.8056 44.7003 42.8177C44.0547 42.8297 43.3851 43.0347 42.7156 43.5168C44.6285 44.0593 46.3741 44.8308 47.9404 45.8675C48.5262 46.2411 48.8251 46.8198 48.9925 47.3863C49.148 47.9529 49.1838 48.5435 49.1719 49.1463C49.124 50.3758 48.8371 51.6656 48.4067 52.7626L48.2512 53.1242L47.9045 53.305C47.6654 53.4376 47.3904 53.5702 47.1274 53.7028C46.8763 55.2458 46.6013 56.8008 46.3024 58.3679C44.5329 56.1981 42.7514 55.4025 40.9939 55.3904C36.4996 55.3422 32.1033 60.3569 28 60.4412C33.556 60.839 42.2015 55.1253 45.2144 61.8396C47.4502 63.5151 49.7458 64.8773 52.0892 65.914C52.2805 64.7808 52.5913 63.5875 53.0217 62.5267C53.2967 61.8516 53.6076 61.2248 54.0021 60.6944C54.3967 60.164 54.8749 59.6818 55.6043 59.501C55.8075 59.4407 56.0227 59.3925 56.226 59.3443C55.5803 58.0786 55.664 56.3789 56.4292 54.9565C57.2064 53.4979 58.6172 52.4853 60.0639 52.3768C61.5464 50.0986 63.1007 47.8805 64.7387 45.6987C66.0061 48.4109 68.8038 48.9052 71.1113 47.0126C70.5255 44.8308 68.9592 44.1437 67.4647 44.1798C66.7952 44.1919 66.1376 44.3607 65.5756 44.6017C67.931 41.5279 70.4537 38.5745 73.1558 35.7104C72.1754 35.274 72.1037 34.9449 71.8526 33.9493C69.1027 36.8411 66.5321 39.8523 64.129 42.9503C64.0692 44.8669 62.9931 46.5907 61.1758 46.9524H61.1519C59.9921 48.5918 58.8683 50.2432 57.7922 51.9308C58.0672 50.1347 58.3422 48.2904 58.677 46.4581C57.84 45.9277 57.1705 45.0357 56.7999 43.999C55.664 47.6756 54.851 51.5813 53.7989 54.9565C53.6554 54.9324 53.5 54.9203 53.3565 54.9203C51.4674 54.9083 49.8055 56.5597 49.3751 57.8013C50.8218 59.055 52.412 59.2961 53.7152 58.7175C53.225 59.5974 52.7228 60.4895 52.2446 61.3815C51.8142 61.1886 51.3718 61.0922 50.9533 61.0922C49.5903 61.0801 48.3469 61.948 47.5937 62.8883C48.4186 58.9344 49.1599 54.9806 49.6979 51.0388C51.8979 52.1599 54.1815 51.1714 55.1977 48.6761C54.3369 47.7721 53.4282 47.4104 52.5674 47.3984C51.6229 47.3863 50.7262 47.8082 50.0208 48.3748C50.1762 47.0126 50.2957 45.6505 50.3794 44.2883C52.6272 46.5184 55.5325 45.9157 56.9672 43.1914C56.1184 42.1065 55.1499 41.6846 54.2173 41.6484C52.5913 41.6002 51.0609 42.7695 50.4033 43.8303C50.4751 42.5404 50.5229 41.2627 50.5229 39.9849C52.9739 41.1421 55.3293 39.9126 56.1184 37.1883C55.2575 36.4614 54.4086 36.1805 53.6315 36.1926C52.3402 36.2119 51.2164 37.0304 50.499 37.9658C50.4751 37.1159 50.4273 36.2661 50.3675 35.4187C53.1652 36.3481 55.4249 34.6641 55.6879 31.7047C53.3206 30.3872 51.5033 31.6155 50.5588 33.132C50.3436 31.4335 49.2436 29.4313 46.9241 29.4288ZM68.206 31.1068C63.8061 31.8084 61.0682 34.5158 59.1552 38.0984L59.4422 38.0261C60.0758 37.9055 60.6856 37.9658 61.2356 38.1707C62.6942 35.3006 64.8463 32.8198 68.206 31.1068ZM84 38.7915C78.3328 46.9765 70.7526 50.4602 63.304 54.2453C63.9377 55.511 63.854 57.1745 63.1007 58.5849V58.5969C70.9678 53.6787 78.9784 49.0137 84 38.7915ZM73.2754 39.3219C71.3863 39.2978 69.7244 40.9734 69.294 42.2029C71.7928 44.3727 74.7101 43.5168 75.9057 40.5997C75.0449 39.6956 74.1362 39.334 73.2754 39.3219ZM60.0041 40.1416C59.9563 40.1537 59.9084 40.1537 59.8606 40.1657C59.1074 40.3104 58.4259 41.3832 58.7009 42.8056C58.9759 44.2281 60.0161 44.9754 60.7573 44.8187C61.5106 44.6741 62.1921 43.6012 61.9171 42.1788C61.654 40.8408 60.7454 40.1054 60.0041 40.1416ZM35.5515 44.7464C35.3733 44.7464 35.1832 44.7584 35.0027 44.7584C36.1254 47.8082 37.3329 50.412 39.882 51.979H39.8939C41.5917 53.0639 43.6242 52.7626 45.3818 52.0875L40.3124 47.8564L46.6372 51.2317C46.8165 50.1588 47.4382 48.7244 46.7926 47.6997H46.7806V47.6877C43.8514 45.771 40.1689 44.7826 35.5515 44.7464ZM60.291 54.5466C59.6335 54.5707 58.8324 55.0288 58.3183 55.9811C57.6368 57.2589 57.9716 58.5005 58.6411 58.8621C59.6693 59.3081 60.8171 58.2594 61.1997 57.5602C61.8812 56.2825 61.5464 55.0529 60.8769 54.6792C60.7095 54.5828 60.5063 54.5466 60.291 54.5466ZM59.9204 61.0922C59.7411 61.0922 59.5498 61.0922 59.3704 61.1042C58.2705 61.1525 57.1944 61.3212 56.1423 61.5985H56.1303C56.1423 61.5985 55.951 61.6829 55.7238 61.9963C55.4966 62.3097 55.2336 62.7798 55.0184 63.3464C54.6956 64.1299 54.4445 65.0701 54.2771 65.9501L61.929 64.7326L55.7238 67.2158C56.3694 68.1802 56.5488 68.578 56.7042 69.2892C57.6966 69.9281 58.7487 70.2174 60.0758 69.8919C63.3757 69.1084 65.9702 66.3961 68.6842 63.2017C65.5756 61.7672 62.6823 61.0681 59.9204 61.0922ZM43.5166 63.2499L42.4406 66.0104C46.3502 67.7462 49.686 69.7593 52.8783 71.7845L54.3728 69.0602C50.5588 67.8788 46.96 65.8898 43.5166 63.2499ZM42.0102 68.1922C39.5113 71.4831 36.5092 74.34 33.0778 76.0156L34.0199 77.9684C38.0049 76.0156 41.3048 72.7729 44.0068 69.1445C43.3612 68.8191 42.6917 68.4936 42.0102 68.1922ZM44.4373 69.3615C41.6156 74.4364 38.9016 78.0528 36.0261 83.3567L37.9212 84.3934C40.7189 79.222 43.421 75.5937 46.3502 70.3741C45.7285 70.0366 45.0829 69.699 44.4373 69.3615ZM47.5697 71.0732C44.6285 75.6178 42.5243 79.3305 40.4439 84.1282L42.4047 84.9961C44.4492 80.2949 46.4937 76.7027 49.411 72.1702C48.8012 71.7965 48.1915 71.4228 47.5697 71.0732ZM50.3197 72.7247C48.4784 75.8588 48.2752 79.5957 47.9523 82.4406L50.0805 82.6937C50.4273 79.7765 50.6903 76.4013 52.1489 73.8819L50.3197 72.7247Z"/>
</svg>