<?xml version="1.0" standalone="no"?>
<!DOCTYPE svg PUBLIC "-//W3C//DTD SVG 20010904//EN"
 "http://www.w3.org/TR/2001/REC-SVG-20010904/DTD/svg10.dtd">
<svg version="1.0" xmlns="http://www.w3.org/2000/svg"
 width="512.000000pt" height="512.000000pt" viewBox="0 0 512.000000 512.000000"
 preserveAspectRatio="xMidYMid meet">
 

<g transform="translate(0.000000,512.000000) scale(0.100000,-0.100000)"
fill="#000000" stroke="none">
<path d="M1704 4834 c-172 -115 -194 -134 -194 -169 0 -28 208 -345 241 -369
31 -21 51 -20 83 5 41 32 35 74 -23 161 -27 40 -48 75 -46 76 15 15 229 -88
323 -155 142 -100 292 -267 374 -414 165 -298 199 -667 89 -991 -97 -288 -307
-541 -568 -684 -38 -20 -78 -46 -90 -57 -40 -36 -25 -95 29 -116 54 -20 261
105 415 252 216 207 353 460 408 757 24 127 24 352 1 480 -56 312 -228 614
-464 813 -149 125 -285 201 -491 273 -9 3 16 25 67 59 114 77 132 113 84 168
-33 37 -71 23 -238 -89z"/>
<path d="M1035 4710 c-454 -119 -828 -474 -968 -916 -48 -151 -61 -245 -61
-429 0 -137 4 -190 22 -272 128 -594 606 -1028 1205 -1095 l108 -12 -71 -66
c-79 -74 -88 -103 -45 -145 48 -49 59 -43 255 134 139 126 140 127 140 166 0
26 -21 55 -126 171 -69 76 -134 147 -146 157 -48 40 -118 7 -118 -57 0 -27 12
-46 63 -102 107 -118 107 -108 -6 -100 -702 49 -1229 709 -1122 1406 29 193
99 371 207 527 160 233 430 418 712 490 118 30 136 42 136 94 0 70 -54 84
-185 49z"/>
<path d="M924 4076 c-234 -73 -399 -323 -380 -576 6 -87 27 -164 52 -191 25
-28 75 -25 104 6 l24 26 -17 82 c-21 101 -21 146 -2 222 32 123 127 236 231
274 115 44 238 23 338 -58 75 -60 144 -60 218 0 21 16 63 42 94 56 48 22 66
25 137 21 61 -2 95 -9 132 -28 69 -34 140 -108 176 -184 82 -176 53 -343 -90
-513 -103 -122 -341 -307 -494 -384 -51 -26 -63 -29 -89 -20 -82 29 -302 180
-420 288 -69 63 -112 71 -147 27 -30 -38 -26 -59 22 -111 140 -152 473 -363
572 -363 109 0 458 236 640 433 138 148 196 279 198 442 2 108 -13 176 -59
270 -89 184 -260 295 -454 295 -116 0 -214 -35 -315 -114 -7 -5 -33 7 -70 33
-80 56 -165 81 -274 80 -47 0 -104 -6 -127 -13z"/>
<path d="M2983 2146 c-106 -20 -197 -53 -298 -105 -106 -56 -1187 -789 -1228
-833 l-28 -30 -565 137 c-351 85 -583 137 -614 137 -54 -1 -131 -30 -168 -65
-71 -66 -98 -174 -67 -267 34 -102 29 -99 864 -520 420 -212 786 -393 815
-403 39 -15 70 -18 136 -15 81 5 97 10 360 118 151 62 285 122 298 133 47 44
5 136 -57 124 -15 -3 -144 -54 -287 -114 -251 -104 -261 -108 -334 -108 l-75
0 -778 393 c-655 332 -780 398 -792 422 -19 37 -19 63 0 100 19 37 48 53 94
51 20 -1 281 -61 580 -134 l544 -132 17 -49 c35 -105 132 -176 243 -176 74 0
889 240 925 273 30 27 29 71 -3 102 -13 14 -30 25 -38 25 -7 0 -201 -56 -431
-125 -234 -70 -435 -125 -457 -125 -31 0 -47 7 -70 29 -62 62 -39 98 145 222
83 57 336 229 561 383 226 154 447 299 492 322 115 58 223 86 363 92 103 4
136 0 310 -32 107 -20 203 -39 213 -42 16 -5 17 -39 17 -520 l0 -514 -197 0
c-139 0 -211 -4 -243 -14 -94 -28 -516 -207 -528 -224 -21 -28 -11 -82 21
-106 l28 -21 57 22 c31 12 152 60 267 107 l210 86 205 0 205 0 23 -40 c24 -42
86 -90 141 -108 24 -9 204 -12 627 -12 l593 0 20 26 c34 43 26 86 -20 109 -24
13 -117 15 -599 15 -521 0 -574 2 -601 17 -61 36 -60 28 -57 632 l3 551 33 32
32 33 596 5 596 5 19 24 c25 30 24 62 -2 95 l-20 26 -597 0 c-578 0 -598 -1
-642 -21 -24 -11 -58 -31 -75 -44 l-31 -23 -200 40 c-231 46 -424 58 -551 34z"/>
<path d="M4055 1825 c-32 -31 -33 -74 -2 -103 31 -30 72 -28 104 4 20 20 24
31 19 57 -12 64 -77 87 -121 42z"/>
</g>
</svg>
